<svg width="18" height="18" viewBox="0 0 18 18" fill="none" xmlns="http://www.w3.org/2000/svg">
<path fill-rule="evenodd" clip-rule="evenodd" d="M7.90956 1.67239C8.34888 0.320298 10.2617 0.320306 10.701 1.67239L11.9672 5.56908C12.0326 5.77064 12.2205 5.9071 12.4324 5.9071H16.5296C17.9513 5.9071 18.5424 7.72633 17.3922 8.56197L14.0775 10.9703C13.9061 11.0948 13.8343 11.3156 13.8998 11.5172L15.1659 15.4139C15.6052 16.766 14.0577 17.8903 12.9076 17.0547L9.59284 14.6464C9.42139 14.5218 9.18922 14.5218 9.01776 14.6464L5.70305 17.0547C4.55288 17.8903 3.00536 16.766 3.44468 15.4139L4.71079 11.5172C4.77628 11.3156 4.70454 11.0948 4.53308 10.9703L1.21836 8.56197C0.0682038 7.72633 0.659314 5.9071 2.08098 5.9071H6.1782C6.39013 5.9071 6.57796 5.77064 6.64345 5.56908L7.90956 1.67239Z" fill="#FFBF00"/>
</svg>
