<svg width="245" height="34" viewBox="0 0 245 34" fill="none" xmlns="http://www.w3.org/2000/svg">
<path d="M237.681 14.153C234.247 14.153 231.663 11.518 231.663 8.25401C231.663 4.97301 234.247 2.33801 237.681 2.33801C241.132 2.33801 243.716 4.97301 243.716 8.25401C243.716 11.518 241.132 14.153 237.681 14.153ZM237.681 12.929C240.435 12.929 242.322 10.855 242.322 8.25401C242.322 5.63601 240.435 3.57901 237.681 3.57901C234.961 3.57901 233.057 5.63601 233.057 8.25401C233.057 10.855 234.961 12.929 237.681 12.929ZM238.718 11.246L237.443 9.20601H236.78V11.246H235.369V5.26201H237.766C239.313 5.26201 240.231 5.95901 240.231 7.23401C240.231 8.08401 239.687 8.69601 238.922 8.96801L240.452 11.246H238.718ZM237.698 6.43501H236.78V8.01601H237.698C238.463 8.01601 238.82 7.72701 238.82 7.23401C238.82 6.75801 238.463 6.43501 237.698 6.43501Z" fill="white"/>
<path d="M158.636 16.6948H168.423C167.941 15.9885 167.308 15.3473 166.605 14.6359C166.453 14.4828 166.299 14.3264 166.142 14.1654C165.935 13.9524 165.735 13.7539 165.544 13.565C164.27 12.3018 163.429 11.469 163.999 9.60339C164.488 8.00473 165.514 7.06893 166.543 7.06893C167.797 7.06893 168.067 8.39465 167.28 10.9681L167.173 11.319H172.254C172.301 11.1633 172.357 11.0075 172.413 10.8517C172.468 10.6958 172.524 10.5392 172.572 10.3832C174.229 4.96337 172.627 2 167.932 2C163.655 2 160.109 5.08035 158.535 10.2273C157.891 12.3328 157.761 14.1264 158.136 15.5301C158.248 15.9311 158.418 16.315 158.636 16.6948Z" fill="white"/>
<path fill-rule="evenodd" clip-rule="evenodd" d="M151.663 16.6948C151.537 16.5732 151.402 16.4579 151.259 16.349C153.664 14.4774 155.008 12.6058 155.783 10.0713C156.653 7.2249 156.396 5.11934 155.041 3.8716C153.811 2.74084 151.894 2.70185 149.353 2.70185H143.276L138.998 16.6948H151.663ZM145.784 14.1654H145.43L147.457 7.53683C147.662 7.49784 147.855 7.49784 148.048 7.49784C150.009 7.49784 150.713 8.66759 150.093 10.6952C149.354 13.1127 147.971 14.1654 145.784 14.1654Z" fill="white"/>
<path d="M135.57 16.6948L136.463 13.7755H129.517L131.162 8.39465H138.687L140.427 2.70185H127.275L122.997 16.6948H135.57Z" fill="white"/>
<path d="M119.437 16.6948L126.002 2.70185H120.31L114.778 16.6948H119.437Z" fill="white"/>
<path d="M113.531 16.6948L116.097 2.70185H110.406L104.357 16.6948H108.71C109.199 15.4196 109.668 14.1434 110.124 12.8787C109.783 14.2571 109.482 15.5291 109.218 16.6948H113.531Z" fill="white"/>
<path d="M98.493 16.6948H103.144L106.161 2.70185H100.469L98.493 16.6948Z" fill="white"/>
<path d="M188.984 16.6948H173.26L177.538 2.70185H183.197L179.812 13.7755H184.217L187.603 2.70185H193.262L188.984 16.6948Z" fill="white"/>
<path d="M207.999 16.6948C209.555 11.5572 210.45 7.98994 209.941 5.82119C209.345 3.24774 207.54 2 204.389 2C201.237 2 198.637 3.24774 196.468 5.82119C194.674 7.95318 193.389 11.5204 191.793 16.6948H197.549L198.155 14.7113C199.609 9.95432 200.381 7.53683 202.664 7.53683C205.011 7.53683 204.272 9.95432 202.818 14.7113L202.211 16.6948H207.999Z" fill="white"/>
<path fill-rule="evenodd" clip-rule="evenodd" d="M225.235 16.6948H210.788L215.066 2.70185H220.629C223.652 2.70185 225.899 2.81883 227.21 4.10556C228.573 5.43127 228.727 8.08272 227.619 11.7089C227.015 13.6828 226.217 15.3495 225.235 16.6948ZM217.623 15.3742C217.398 15.3742 217.141 15.3742 216.895 15.3352L219.136 8.00473H219.619C222.031 8.00473 222.818 8.90154 222.078 11.319C221.208 14.1654 219.906 15.3742 217.623 15.3742Z" fill="white"/>
<path d="M8.5885 16.6948H2.92888L5.4665 8.39465H0.932373L2.67284 2.70185H17.6258L15.8853 8.39465H11.1261L8.5885 16.6948Z" fill="white"/>
<path d="M27.6023 16.6948H15.0289L19.307 2.70185H32.4592L30.7187 8.39465H23.194L21.5489 13.7755H28.4948L27.6023 16.6948Z" fill="white"/>
<path d="M43.7736 16.6948L45.5656 2.70185H38.8448L32.05 16.6948H36.8367L40.4725 8.31667L38.9643 16.6948H43.7736Z" fill="white"/>
<path d="M53.078 16.6948H48.0664L52.3444 2.70185H60.255L58.5948 15.1792C58.5657 15.3522 58.482 15.7756 58.3492 16.4474C58.3336 16.5264 58.3173 16.609 58.3003 16.6948H54.1594L55.1616 9.36944L53.078 16.6948Z" fill="white"/>
<path d="M64.7284 16.6948L67.124 9.36944L63.647 16.6948H59.5544C59.9273 15.8225 60.1639 15.2774 60.2706 15.0622L66.1719 2.70185H74.0182L69.7401 16.6948H64.7284Z" fill="white"/>
<path fill-rule="evenodd" clip-rule="evenodd" d="M84.3379 16.6948H75.1343C75.3068 16.5732 75.4826 16.4578 75.6615 16.349C74.3541 14.9453 74.1058 12.9177 74.9164 10.2663C76.3827 5.47027 79.7648 2.50689 84.0738 2.50689C88.3828 2.50689 89.9529 5.47027 88.4866 10.2663C87.676 12.9177 86.1879 14.9453 84.0223 16.349C84.1346 16.4578 84.2398 16.5732 84.3379 16.6948ZM79.7971 10.5002C79.1056 12.7617 79.5483 14.0485 80.5774 14.0485C81.6707 14.0485 82.8799 12.7227 83.5594 10.5002C84.2151 8.35566 83.8652 7.18591 82.6755 7.18591C81.4856 7.18591 80.4527 8.35566 79.7971 10.5002Z" fill="white"/>
<path d="M5.6865 15.9693L1 31.2981H6.65961L11.3461 15.9693H5.6865Z" fill="white"/>
<path d="M17.7865 15.9693L13.1 31.2981H26.2522L28.0761 25.3324H20.5514L22.5064 18.9378H29.4523L30.3599 15.9693H17.7865Z" fill="white"/>
<path d="M34.8076 15.9693L27.3641 31.2981H33.0559L35.48 25.6833H39.9176L38.9085 31.2981H44.5681L46.5312 15.9693H41.722L40.9279 20.3805H37.6801L39.5943 15.9693H34.8076Z" fill="white"/>
<path d="M50.824 15.9693L46.1375 31.2981H51.4755L55.8356 15.9693H50.824Z" fill="white"/>
<path d="M56.917 15.9693L54.8198 31.2981H59.1289L66.4047 15.9693H62.312C62.1649 16.3135 61.9965 16.7086 61.8065 17.1545C61.3434 18.2412 60.7519 19.6294 60.0261 21.3163C60.4776 18.9136 60.8289 17.1286 61.0579 15.9693H56.917Z" fill="white"/>
<path d="M72.4977 15.9693H67.4861L62.4732 31.2981H67.8112L72.4977 15.9693Z" fill="white"/>
<path d="M213.545 15.9693H227.993C226.026 18.6635 223.323 20.0685 219.978 20.0685H217.984L214.551 31.2981H208.859L213.545 15.9693Z" fill="white"/>
<path d="M194.551 15.9693C194.483 16.189 194.415 16.4117 194.346 16.6372C192.653 22.1741 191.658 25.9563 192.168 28.1788C192.764 30.7523 194.601 32 197.753 32C200.872 32 203.472 30.7523 205.642 28.1788C207.555 25.9173 208.872 22.1351 210.553 16.6372C210.622 16.4117 210.69 16.1891 210.756 15.9693H204.969L203.954 19.2887C202.488 24.0847 201.729 26.4632 199.445 26.4632C197.162 26.4632 197.825 24.0847 199.291 19.2887L200.306 15.9693H194.551Z" fill="white"/>
<path d="M176.017 15.9693H191.742L187.056 31.2981H181.396L185.115 19.1327H180.71L176.99 31.2981H171.331L176.017 15.9693Z" fill="white"/>
<path d="M161.393 15.9693H171.18C171.549 16.5103 171.829 17.0896 171.982 17.768C172.264 19.0547 172.125 20.7704 171.493 22.8369C169.693 28.7247 166.087 32 161.424 32C156.537 32 154.99 28.9586 156.826 22.9539C156.981 22.447 157.18 21.9011 157.379 21.3552H162.557L162.294 22.2131C161.364 25.2544 161.43 26.6191 163.005 26.6191C164.195 26.6191 165.257 25.5664 165.793 23.8117C166.443 21.6856 165.667 20.8865 164.532 19.7168C164.377 19.5567 164.214 19.389 164.048 19.2107L163.851 18.9971C162.812 17.8706 161.946 16.9328 161.393 15.9693Z" fill="white"/>
<path fill-rule="evenodd" clip-rule="evenodd" d="M141.755 15.9693H154.42C155.822 17.3272 156.087 19.4735 155.19 22.408C154.367 25.0985 152.824 27.5159 151.049 29.1146C148.91 31.0642 146.78 31.2981 143.789 31.2981H137.069L141.755 15.9693ZM144.796 26.1122H144.314L146.638 18.5088H147.024C149.532 18.5088 150.356 19.6006 149.593 22.0961C148.783 24.7475 147.176 26.1122 144.796 26.1122Z" fill="white"/>
<path d="M125.755 15.9693H138.328L137.42 18.9378H130.474L128.519 25.3324H136.044L134.22 31.2981H121.068L125.755 15.9693Z" fill="white"/>
<path d="M117.535 15.9693H122.195L115.003 31.2981H108.894L111.283 19.1717C111.479 18.2124 111.709 17.1449 111.975 15.9693H116.289L116.252 16.1693C116.102 17.0204 115.822 18.3431 115.44 20.1499L115.439 20.1528L115.439 20.1546C115.261 20.9955 115.061 21.9412 114.841 22.9929C115.905 20.1465 116.745 17.924 117.394 16.3253L117.535 15.9693Z" fill="white"/>
<path d="M105.902 15.9693L105.842 16.2473C105.304 18.7428 104.806 21.0043 104.326 22.9929C105.134 20.7704 106.031 18.4699 107.011 16.2083L107.115 15.9693H111.468C111.053 17.053 110.624 18.1359 110.177 19.2107L105.228 31.2981H99.0858L101.251 15.9693H105.902Z" fill="white"/>
<path fill-rule="evenodd" clip-rule="evenodd" d="M77.892 15.9693H87.0955C88.2974 17.4595 88.4313 19.8986 87.4614 23.0709C85.7567 28.6467 82.0983 31.883 77.5963 31.883C73.1586 31.883 71.479 28.6467 73.1837 23.0709C74.1536 19.8986 75.7789 17.4595 77.892 15.9693ZM78.5601 22.525C77.6779 25.4104 77.8919 26.8141 79.1782 26.8141C80.5609 26.8141 81.5689 25.4104 82.451 22.525C83.357 19.5616 83.2836 18.1189 81.8687 18.1189C80.4538 18.1189 79.466 19.5616 78.5601 22.525Z" fill="white"/>
</svg>
